{"title":"Thupakki - Indian Soldier Never On Holiday (2012) - Hindi Dubbed","uid":12036777,"size":1000362257,"categoryP":"video","categoryS":"movies","magnet":"?xt=urn:btih:4f22383da3936fe64e2bab567f0f21fc0ae0fbba&amp;dn=Thupakki+-+Indian+Soldier+Never+On+Holiday+%282012%29+-+Hindi+Dubbed&amp;tr=udp%3A%2F%2Ftracker.openbittorrent.com%3A80&amp;tr=udp%3A%2F%2Fopen.demonii.com%3A1337&amp;tr=udp%3A%2F%2Ftracker.coppersurfer.tk%3A6969&amp;tr=udp%3A%2F%2Fexodus.desync.com%3A6969","seeders":6,"leechers":1,"uploader":"SS132203","files":2,"time":1434696979,"description":"Thupakki - Indian Soldier Never On Holiday (2012) - Hindi Dubbed - 720p WEBHD - x264 - AAC -={SPARROW}=-\n &lt;a href=&quot;\nhttp://imgsparrow.co/image/Qf&quot; rel=&quot;nofollow&quot; target=&quot;_NEW&quot;&gt;\nhttp://imgsparrow.co/image/Qf&lt;/a&gt;\n &lt;a href=&quot;\nhttp://imgsparrow.co/image/Et&quot; rel=&quot;nofollow&quot; target=&quot;_NEW&quot;&gt;\nhttp://imgsparrow.co/image/Et&lt;/a&gt;\n\nInfo : - \n\nFormat                      : MPEG-4\nFormat profile              : Base Media / Version 2\nCodec ID                    : mp42\nFile size                   : 954 MiB\nDuration                    : 2h 13mn\nOverall bit rate mode       : Variable\nOverall bit rate            : 999 Kbps\nWriting application         : HandBrake 0.10.1 2015030800\n\nVideo\nID                          : 1\nFormat                      : AVC\nFormat/Info                 : Advanced Video Codec\nFormat profile              : &lt;a class=&quot;__cf_email__&quot; href=&quot;/cdn-cgi/l/email-protection&quot; data-cfemail=&quot;400d21292e000c746e71&quot;&gt;[email&amp;#160;protected]&lt;/a&gt;&lt;script data-cfhash='f9e31' type=&quot;text/javascript&quot;&gt;\n/* &lt;![CDATA[ */!function(){try{var t=&quot;currentScript&quot;in document?document.currentScript:function(){for(var t=document.getElementsByTagName(&quot;script&quot;),e=t.length;e--;)if(t[e].getAttribute(&quot;data-cfhash&quot;))return t[e]}();if(t&amp;&amp;t.previousSibling){var e,r,n,i,c=t.previousSibling,a=c.getAttribute(&quot;data-cfemail&quot;);if(a){for(e=&quot;&quot;,r=parseInt(a.substr(0,2),16),n=2;a.length-n;n+=2)i=parseInt(a.substr(n,2),16)^r,e+=String.fromCharCode(i);e=document.createTextNode(e),c.parentNode.replaceChild(e,c)}t.parentNode.removeChild(t);}}catch(u){}}()/* ]]&gt; */&lt;/script&gt;\nFormat settings, CABAC      : Yes\nFormat settings, ReFrames   : 4 frames\nCodec ID                    : avc1\nCodec ID/Info               : Advanced Video Coding\nDuration                    : 2h 13mn\nBit rate                    : 800 Kbps\nWidth                       : 1 280 pixels\nHeight                      : 546 pixels\nDisplay aspect ratio        : 2.35:1\nFrame rate mode             : Constant\nFrame rate                  : 25.000 fps\nColor space                 : YUV\nChroma subsampling          : 4:2:0\nBit depth                   : 8 bits\nScan type                   : Progressive\nBits/(Pixel*Frame)          : 0.046\nStream size                 : 764 MiB (80%)\nWriting library             : x264 core 142 r2479 dd79a61\nColor range                 : Limited\nColor primaries             : BT.709\nTransfer characteristics    : BT.709\nMatrix coefficients         : BT.709\n\nAudio\nID                          : 2\nFormat                      : AAC\nFormat/Info                 : Advanced Audio Codec\nFormat profile              : LC\nCodec ID                    : 40\nDuration                    : 2h 13mn\nBit rate mode               : Variable\nBit rate                    : 192 Kbps\nChannel(s)                  : 2 channels\nChannel positions           : Front: L R\nSampling rate               : 48.0 KHz\nCompression mode            : Lossy\nStream size                 : 184 MiB (19%)\nTitle                       : Stereo / Stereo\nLanguage                    : Hindi\n\nScreens : - \n &lt;a href=&quot;\nhttp://imgsparrow.co/image/QI&quot; rel=&quot;nofollow&quot; target=&quot;_NEW&quot;&gt;\nhttp://imgsparrow.co/image/QI&lt;/a&gt; &lt;a href=&quot;\nhttp://imgsparrow.co/image/QP&quot; rel=&quot;nofollow&quot; target=&quot;_NEW&quot;&gt;\nhttp://imgsparrow.co/image/QP&lt;/a&gt; &lt;a href=&quot;\nhttp://imgsparrow.co/image/QW&quot; rel=&quot;nofollow&quot; target=&quot;_NEW&quot;&gt;\nhttp://imgsparrow.co/image/QW&lt;/a&gt; &lt;a href=&quot;\nhttp://imgsparrow.co/image/QX&quot; rel=&quot;nofollow&quot; target=&quot;_NEW&quot;&gt;\nhttp://imgsparrow.co/image/QX&lt;/a&gt; &lt;a href=&quot;\nhttp://imgsparrow.co/image/QY&quot; rel=&quot;nofollow&quot; target=&quot;_NEW&quot;&gt;\nhttp://imgsparrow.co/image/QY&lt;/a&gt; &lt;a href=&quot;\nhttp://imgsparrow.co/image/Qc&quot; rel=&quot;nofollow&quot; target=&quot;_NEW&quot;&gt;\nhttp://imgsparrow.co/image/Qc&lt;/a&gt; &lt;a href=&quot;\nhttp://imgsparrow.co/image/Qd&quot; rel=&quot;nofollow&quot; target=&quot;_NEW&quot;&gt;\nhttp://imgsparrow.co/image/Qd&lt;/a&gt; &lt;a href=&quot;\nhttp://imgsparrow.co/image/Qo&quot; rel=&quot;nofollow&quot; target=&quot;_NEW&quot;&gt;\nhttp://imgsparrow.co/image/Qo&lt;/a&gt; &lt;a href=&quot;\nhttp://imgsparrow.co/image/QM&quot; rel=&quot;nofollow&quot; target=&quot;_NEW&quot;&gt;\nhttp://imgsparrow.co/image/QM&lt;/a&gt; &lt;a href=&quot;\nhttp://imgsparrow.co/image/Qm&quot; rel=&quot;nofollow&quot; target=&quot;_NEW&quot;&gt;\nhttp://imgsparrow.co/image/Qm&lt;/a&gt;\n &lt;a href=&quot;\nhttp://imgsparrow.co/image/N2&quot; rel=&quot;nofollow&quot; target=&quot;_NEW&quot;&gt;\nhttp://imgsparrow.co/image/N2&lt;/a&gt;","torrent":{"xt":"urn:btih:4f22383da3936fe64e2bab567f0f21fc0ae0fbba","amp;dn":"Thupakki+-+Indian+Soldier+Never+On+Holiday+%282012%29+-+Hindi+Dubbed","amp;tr":["udp%3A%2F%2Ftracker.openbittorrent.com%3A80","udp%3A%2F%2Fopen.demonii.com%3A1337","udp%3A%2F%2Ftracker.coppersurfer.tk%3A6969","udp%3A%2F%2Fexodus.desync.com%3A6969"],"infoHash":"4f22383da3936fe64e2bab567f0f21fc0ae0fbba","infoHashBuffer":{"type":"Buffer","data":[79,34,56,61,163,147,111,230,78,43,171,86,127,15,33,252,10,224,251,186]},"announce":[],"urlList":[]}}